<svg width="1690" height="398" viewBox="0 0 1690 398" fill="none" xmlns="http://www.w3.org/2000/svg">
<path d="M1665.7 205.753C1620.7 249.27 1490.44 338.965 1329.43 349.606C1128.18 362.907 654.634 113.934 390.041 146.874C178.367 173.226 47.1873 242.453 8.05663 273.773" stroke="#FF5997" stroke-width="8" stroke-linecap="round"/>
<path d="M1657.39 152.034C1554.79 140.993 1199.57 174.11 1002.69 305.235C756.582 469.141 658.176 -59.3369 126.603 154.74" stroke="#F3D24F" stroke-width="8" stroke-linecap="round"/>
<path d="M1660.78 104.392C1483.18 30.3486 1032.81 101.101 770.899 271.044C561.372 406.999 263.44 182.134 140.665 52.7065" stroke="#F6783A" stroke-width="8" stroke-linecap="round"/>
<path d="M1677.49 287.932C1544.39 124.335 1110.83 -3.09418 883.421 92.1414C656.008 187.377 464.727 359.936 301.297 349.951C170.552 341.962 66.9618 245.306 31.5096 197.976" stroke="#73B840" stroke-width="8" stroke-linecap="round"/>
<path d="M1602.3 343.003C1429.82 242.605 1029.24 42.9879 806.876 47.7014C528.917 53.5933 392.92 366.865 120.65 393.077" stroke="#F23535" stroke-width="8" stroke-linecap="round"/>
<path d="M1683.21 161.167C1556.25 179.466 1509.9 258.676 1324.29 273.354C1092.28 291.701 938.605 52.2547 576.339 50.4898C286.526 49.0779 166.735 222.089 97.1123 318.329" stroke="#00C3CA" stroke-width="8" stroke-linecap="round"/>
</svg>
